<mxfile host="app.diagrams.net" modified="2022-08-12T20:29:33.476Z" agent="5.0 (Macintosh; Intel Mac OS X 10_15_7) AppleWebKit/537.36 (KHTML, like Gecko) Chrome/104.0.5112.81 Safari/537.36" etag="xncv2_aKnYrzDGY0JY8c" version="20.2.3" type="github">
  <diagram id="iUIAf91yaw_snY8xgFvM" name="Page-1">
    <mxGraphModel dx="1298" dy="837" grid="1" gridSize="10" guides="1" tooltips="1" connect="1" arrows="1" fold="1" page="1" pageScale="1" pageWidth="827" pageHeight="1169" math="0" shadow="0">
      <root>
        <mxCell id="0" />
        <mxCell id="1" parent="0" />
        <mxCell id="6MKFGP_MM5SU60d12Fkj-4" value="AWS SES&lt;br&gt;" style="sketch=0;points=[[0,0,0],[0.25,0,0],[0.5,0,0],[0.75,0,0],[1,0,0],[0,1,0],[0.25,1,0],[0.5,1,0],[0.75,1,0],[1,1,0],[0,0.25,0],[0,0.5,0],[0,0.75,0],[1,0.25,0],[1,0.5,0],[1,0.75,0]];outlineConnect=0;fontColor=#232F3E;gradientColor=#4D72F3;gradientDirection=north;fillColor=#3334B9;strokeColor=#ffffff;dashed=0;verticalLabelPosition=bottom;verticalAlign=top;align=center;html=1;fontSize=12;fontStyle=0;aspect=fixed;shape=mxgraph.aws4.resourceIcon;resIcon=mxgraph.aws4.simple_email_service;" parent="1" vertex="1">
          <mxGeometry x="361" y="80" width="78" height="78" as="geometry" />
        </mxCell>
        <mxCell id="6MKFGP_MM5SU60d12Fkj-28" value="GraphQL&lt;br&gt;" style="verticalLabelPosition=bottom;verticalAlign=top;html=1;shape=mxgraph.basic.rect;fillColor2=none;strokeWidth=1;size=20;indent=5;fontFamily=Helvetica;fontSize=11;fontColor=default;" parent="1" vertex="1">
          <mxGeometry x="350" y="250" width="10" height="60" as="geometry" />
        </mxCell>
        <mxCell id="45smnKFW-yvDXF-XnnwZ-4" value="" style="edgeStyle=orthogonalEdgeStyle;rounded=0;orthogonalLoop=1;jettySize=auto;html=1;" edge="1" parent="1" source="6MKFGP_MM5SU60d12Fkj-29" target="45smnKFW-yvDXF-XnnwZ-3">
          <mxGeometry relative="1" as="geometry" />
        </mxCell>
        <mxCell id="6MKFGP_MM5SU60d12Fkj-29" value="AWS SQS&lt;br&gt;" style="sketch=0;points=[[0,0,0],[0.25,0,0],[0.5,0,0],[0.75,0,0],[1,0,0],[0,1,0],[0.25,1,0],[0.5,1,0],[0.75,1,0],[1,1,0],[0,0.25,0],[0,0.5,0],[0,0.75,0],[1,0.25,0],[1,0.5,0],[1,0.75,0]];outlineConnect=0;fontColor=#232F3E;gradientColor=#FF4F8B;gradientDirection=north;fillColor=#BC1356;strokeColor=#ffffff;dashed=0;verticalLabelPosition=bottom;verticalAlign=top;align=center;html=1;fontSize=12;fontStyle=0;aspect=fixed;shape=mxgraph.aws4.resourceIcon;resIcon=mxgraph.aws4.sqs;fontFamily=Helvetica;" parent="1" vertex="1">
          <mxGeometry x="350" y="440" width="78" height="78" as="geometry" />
        </mxCell>
        <mxCell id="6MKFGP_MM5SU60d12Fkj-33" value="" style="edgeStyle=orthogonalEdgeStyle;html=1;endArrow=none;elbow=vertical;startArrow=block;startFill=1;strokeColor=#545B64;rounded=0;labelBackgroundColor=default;fontFamily=Helvetica;fontSize=11;fontColor=default;shape=connector;" parent="1" source="6MKFGP_MM5SU60d12Fkj-29" edge="1">
          <mxGeometry width="100" relative="1" as="geometry">
            <mxPoint x="360" y="370" as="sourcePoint" />
            <mxPoint x="399" y="318" as="targetPoint" />
          </mxGeometry>
        </mxCell>
        <mxCell id="45smnKFW-yvDXF-XnnwZ-6" value="" style="edgeStyle=orthogonalEdgeStyle;rounded=0;orthogonalLoop=1;jettySize=auto;html=1;" edge="1" parent="1" source="45smnKFW-yvDXF-XnnwZ-3" target="45smnKFW-yvDXF-XnnwZ-7">
          <mxGeometry relative="1" as="geometry">
            <mxPoint x="562" y="479" as="targetPoint" />
          </mxGeometry>
        </mxCell>
        <mxCell id="6MKFGP_MM5SU60d12Fkj-37" value="Github&lt;br&gt;" style="verticalLabelPosition=bottom;html=1;verticalAlign=top;align=center;strokeColor=none;fillColor=#00BEF2;shape=mxgraph.azure.github_code;pointerEvents=1;fontFamily=Helvetica;fontSize=11;fontColor=default;" parent="1" vertex="1">
          <mxGeometry x="555" y="560" width="80" height="80" as="geometry" />
        </mxCell>
        <mxCell id="45smnKFW-yvDXF-XnnwZ-3" value="Load Balancer&lt;br&gt;" style="outlineConnect=0;dashed=0;verticalLabelPosition=bottom;verticalAlign=top;align=center;html=1;shape=mxgraph.aws3.classic_load_balancer;fillColor=#F58536;gradientColor=none;" vertex="1" parent="1">
          <mxGeometry x="480" y="441" width="60" height="76" as="geometry" />
        </mxCell>
        <mxCell id="45smnKFW-yvDXF-XnnwZ-8" value="" style="edgeStyle=orthogonalEdgeStyle;rounded=0;orthogonalLoop=1;jettySize=auto;html=1;strokeColor=default;" edge="1" parent="1" source="45smnKFW-yvDXF-XnnwZ-7" target="6MKFGP_MM5SU60d12Fkj-37">
          <mxGeometry relative="1" as="geometry" />
        </mxCell>
        <mxCell id="45smnKFW-yvDXF-XnnwZ-29" value="" style="edgeStyle=orthogonalEdgeStyle;rounded=0;orthogonalLoop=1;jettySize=auto;html=1;" edge="1" parent="1" source="45smnKFW-yvDXF-XnnwZ-7" target="45smnKFW-yvDXF-XnnwZ-26">
          <mxGeometry relative="1" as="geometry" />
        </mxCell>
        <mxCell id="45smnKFW-yvDXF-XnnwZ-7" value="Autoscaling Judgeserver&lt;br&gt;" style="sketch=0;outlineConnect=0;fontColor=#232F3E;gradientColor=none;fillColor=#D45B07;strokeColor=none;dashed=0;verticalLabelPosition=bottom;verticalAlign=top;align=center;html=1;fontSize=12;fontStyle=0;aspect=fixed;pointerEvents=1;shape=mxgraph.aws4.c5_instance;direction=east;" vertex="1" parent="1">
          <mxGeometry x="610" y="446.5" width="65" height="65" as="geometry" />
        </mxCell>
        <mxCell id="45smnKFW-yvDXF-XnnwZ-22" value="" style="edgeStyle=orthogonalEdgeStyle;rounded=0;orthogonalLoop=1;jettySize=auto;html=1;" edge="1" parent="1" source="45smnKFW-yvDXF-XnnwZ-9" target="6MKFGP_MM5SU60d12Fkj-4">
          <mxGeometry relative="1" as="geometry" />
        </mxCell>
        <mxCell id="45smnKFW-yvDXF-XnnwZ-23" value="" style="edgeStyle=orthogonalEdgeStyle;rounded=0;orthogonalLoop=1;jettySize=auto;html=1;" edge="1" parent="1" source="45smnKFW-yvDXF-XnnwZ-9" target="45smnKFW-yvDXF-XnnwZ-26">
          <mxGeometry relative="1" as="geometry">
            <mxPoint x="549.5" y="281" as="targetPoint" />
            <Array as="points">
              <mxPoint x="495" y="280" />
              <mxPoint x="495" y="270" />
              <mxPoint x="550" y="270" />
              <mxPoint x="550" y="296" />
            </Array>
          </mxGeometry>
        </mxCell>
        <mxCell id="45smnKFW-yvDXF-XnnwZ-9" value="Core&lt;br&gt;&amp;nbsp;Backend" style="sketch=0;outlineConnect=0;fontColor=#232F3E;gradientColor=none;fillColor=#D45B07;strokeColor=none;dashed=0;verticalLabelPosition=bottom;verticalAlign=top;align=center;html=1;fontSize=12;fontStyle=0;aspect=fixed;pointerEvents=1;shape=mxgraph.aws4.t2_instance;" vertex="1" parent="1">
          <mxGeometry x="360" y="240" width="80" height="80" as="geometry" />
        </mxCell>
        <mxCell id="45smnKFW-yvDXF-XnnwZ-20" value="" style="edgeStyle=orthogonalEdgeStyle;rounded=0;orthogonalLoop=1;jettySize=auto;html=1;" edge="1" parent="1" source="45smnKFW-yvDXF-XnnwZ-10" target="45smnKFW-yvDXF-XnnwZ-15">
          <mxGeometry relative="1" as="geometry" />
        </mxCell>
        <mxCell id="45smnKFW-yvDXF-XnnwZ-10" value="AWS Cloudfront&lt;br&gt;(Frontend Deployment)&lt;br&gt;&lt;br&gt;&lt;br&gt;&amp;nbsp;" style="outlineConnect=0;dashed=0;verticalLabelPosition=bottom;verticalAlign=top;align=center;html=1;shape=mxgraph.aws3.cloudfront;fillColor=#F58536;gradientColor=none;" vertex="1" parent="1">
          <mxGeometry x="110" y="240" width="76.5" height="80" as="geometry" />
        </mxCell>
        <mxCell id="45smnKFW-yvDXF-XnnwZ-13" value="" style="edgeStyle=orthogonalEdgeStyle;rounded=0;orthogonalLoop=1;jettySize=auto;html=1;" edge="1" parent="1" source="45smnKFW-yvDXF-XnnwZ-12" target="45smnKFW-yvDXF-XnnwZ-10">
          <mxGeometry relative="1" as="geometry" />
        </mxCell>
        <mxCell id="45smnKFW-yvDXF-XnnwZ-12" value="AWS S3&lt;br&gt;Stores Build of FE&lt;br&gt;" style="sketch=0;outlineConnect=0;fontColor=#232F3E;gradientColor=none;strokeColor=#ffffff;fillColor=#232F3E;dashed=0;verticalLabelPosition=middle;verticalAlign=bottom;align=center;html=1;whiteSpace=wrap;fontSize=10;fontStyle=1;spacing=3;shape=mxgraph.aws4.productIcon;prIcon=mxgraph.aws4.s3;" vertex="1" parent="1">
          <mxGeometry x="106.75" y="390" width="83" height="130" as="geometry" />
        </mxCell>
        <mxCell id="45smnKFW-yvDXF-XnnwZ-19" value="" style="edgeStyle=orthogonalEdgeStyle;rounded=0;orthogonalLoop=1;jettySize=auto;html=1;" edge="1" parent="1" source="45smnKFW-yvDXF-XnnwZ-15" target="45smnKFW-yvDXF-XnnwZ-9">
          <mxGeometry relative="1" as="geometry" />
        </mxCell>
        <mxCell id="45smnKFW-yvDXF-XnnwZ-15" value="Load Balancer&lt;br&gt;" style="outlineConnect=0;dashed=0;verticalLabelPosition=bottom;verticalAlign=top;align=center;html=1;shape=mxgraph.aws3.classic_load_balancer;fillColor=#F58536;gradientColor=none;" vertex="1" parent="1">
          <mxGeometry x="240" y="242" width="69" height="76" as="geometry" />
        </mxCell>
        <mxCell id="45smnKFW-yvDXF-XnnwZ-30" value="" style="edgeStyle=orthogonalEdgeStyle;rounded=0;orthogonalLoop=1;jettySize=auto;html=1;" edge="1" parent="1" source="45smnKFW-yvDXF-XnnwZ-26" target="45smnKFW-yvDXF-XnnwZ-9">
          <mxGeometry relative="1" as="geometry" />
        </mxCell>
        <mxCell id="45smnKFW-yvDXF-XnnwZ-26" value="AWS RDS&lt;br&gt;Postgres" style="sketch=0;outlineConnect=0;fontColor=#232F3E;gradientColor=none;strokeColor=#ffffff;fillColor=#232F3E;dashed=0;verticalLabelPosition=middle;verticalAlign=bottom;align=center;html=1;whiteSpace=wrap;fontSize=10;fontStyle=1;spacing=3;shape=mxgraph.aws4.productIcon;prIcon=mxgraph.aws4.rds;" vertex="1" parent="1">
          <mxGeometry x="555" y="242" width="80" height="108" as="geometry" />
        </mxCell>
        <mxCell id="45smnKFW-yvDXF-XnnwZ-32" value="" style="edgeStyle=orthogonalEdgeStyle;html=1;endArrow=none;elbow=vertical;startArrow=block;startFill=1;strokeColor=#545B64;rounded=0;exitX=0.5;exitY=1;exitDx=0;exitDy=0;exitPerimeter=0;" edge="1" parent="1" source="6MKFGP_MM5SU60d12Fkj-29" target="45smnKFW-yvDXF-XnnwZ-7">
          <mxGeometry width="100" relative="1" as="geometry">
            <mxPoint x="360" y="330" as="sourcePoint" />
            <mxPoint x="460" y="330" as="targetPoint" />
            <Array as="points">
              <mxPoint x="389" y="700" />
              <mxPoint x="690" y="700" />
              <mxPoint x="690" y="479" />
            </Array>
          </mxGeometry>
        </mxCell>
      </root>
    </mxGraphModel>
  </diagram>
</mxfile>
